<mxfile host="app.diagrams.net" modified="2023-11-25T02:50:02.252Z" agent="Mozilla/5.0 (Macintosh; Intel Mac OS X 10_15_7) AppleWebKit/605.1.15 (KHTML, like Gecko) Version/16.6 Safari/605.1.15" version="22.1.4" etag="8rNLa3R8uBL2hk-hKlpL" type="github">
  <diagram name="Page-1" id="6Pg7xxuK6CmQZVRJM8Rp">
    <mxGraphModel>
      <root>
        <mxCell id="0" />
        <mxCell id="1" parent="0" />
      </root>
    </mxGraphModel>
  </diagram>
</mxfile>
